<svg width="160" height="252" viewBox="0 0 160 252" fill="none" xmlns="http://www.w3.org/2000/svg">
<g clip-path="url(#clip0_1_254)">
<path d="M93.1145 121.736L97.5831 112.385" stroke="#B09368" stroke-miterlimit="10"/>
<path d="M93.1144 121.736L84.3484 154.852L96.6003 167.016" stroke="#B09368" stroke-miterlimit="10"/>
<path d="M34.2196 111.307L87.2935 121.736" stroke="#B09368" stroke-miterlimit="10"/>
<path fill-rule="evenodd" clip-rule="evenodd" d="M71.6486 31.0505L63.2402 85.9311L75.4351 59.2301L71.6486 31.0505Z" stroke="#B09368" stroke-linecap="round" stroke-linejoin="round"/>
<path d="M69.1272 30.4843L60.7549 85.3619" stroke="#B09368" stroke-miterlimit="10"/>
<path d="M75.4351 59.2302C76.1504 59.4199 76.8686 59.6337 77.5928 59.8777C88.2731 63.4615 95.7289 71.638 94.1241 78.107C94.01 78.5708 93.8447 79.0105 93.6463 79.4321H93.6493L83.9998 100.748H83.9938C81.5777 95.1888 74.5937 89.5903 65.6354 86.6419C58.2758 84.2205 51.2587 84.1483 46.4565 86.0004H46.4535L55.8266 64.4493C55.9648 64.0307 56.1391 63.6271 56.3495 63.2477C57.7919 60.6517 60.8752 58.9832 64.839 58.42" stroke="#B09368" stroke-miterlimit="10"/>
<path d="M84.3485 160.107L37.0295 149.916C35.3917 149.563 34.2197 148.112 34.2197 146.431V111.307L37.6576 105.437C38.1023 104.675 38.9859 104.284 39.8453 104.465L90.473 115.08" stroke="#B09368" stroke-miterlimit="10"/>
<path fill-rule="evenodd" clip-rule="evenodd" d="M78.9421 112.662L47.9561 106.166C42.3004 101.817 39.2201 96.4416 40.4282 91.9332C42.2763 85.0306 53.5006 82.6484 65.6414 86.6418C77.9324 90.6864 86.5151 99.7243 84.6699 106.799C83.9758 109.461 81.9082 111.445 78.9451 112.665L78.9421 112.662Z" stroke="#B09368" stroke-miterlimit="10"/>
<path fill-rule="evenodd" clip-rule="evenodd" d="M15.1879 47.5029C20.6332 30.1861 48.4519 22.0517 83.4588 34.58C125.242 49.5387 149.653 83.4465 134.492 102.615C127.71 111.189 115.028 114.701 100.182 113.978L98.6648 112.605L92.2759 111.307L91.4194 113.099C88.2069 112.62 84.9373 111.972 81.6347 111.15C83.1493 110.009 84.2071 108.551 84.6639 106.796C86.512 99.7213 77.9263 90.6834 65.6353 86.6388C53.4945 82.6454 42.2703 85.0306 40.4221 91.9302C40.4041 92.0025 40.3861 92.0778 40.371 92.15C20.3027 77.8539 10.9777 60.8835 15.1849 47.4998L15.1879 47.5029Z" stroke="#B09368" stroke-miterlimit="10"/>
<path fill-rule="evenodd" clip-rule="evenodd" d="M6.49708 24.0213C18.0459 -1.80628 62.8796 -7.06155 105.904 14.0649C148.634 35.0499 169.833 72.3216 154.969 96.1375C145.771 110.879 125.149 117.177 101.327 115.014L98.6679 112.605L92.279 111.307L91.1761 113.611C87.9245 113.012 84.6399 112.265 81.3342 111.37C83.0111 110.199 84.1771 108.666 84.6639 106.796C86.5121 99.7213 77.9264 90.6834 65.6354 86.6388C53.4946 82.6454 42.2703 85.0306 40.4222 91.9302C40.3951 92.0356 40.3711 92.144 40.347 92.2525C12.315 72.7191 -2.91804 45.0695 6.49408 24.0183L6.49708 24.0213Z" stroke="#B09368" stroke-miterlimit="10"/>
<path fill-rule="evenodd" clip-rule="evenodd" d="M92.2791 111.307L98.668 112.605L105.096 118.423C107.251 120.375 108.137 123.368 107.395 126.181L96.6005 167.016L91.5969 166.082C91.077 165.986 90.5932 165.745 90.1995 165.39L78.6417 154.412L87.2935 121.733L92.2791 111.304V111.307Z" stroke="#B09368" stroke-miterlimit="10" stroke-linejoin="round"/>
<path d="M138.639 85.0035L84.6489 102.658" stroke="#B09368" stroke-miterlimit="10"/>
<path d="M138.913 87.0906L84.9134 104.934" stroke="#B09368" stroke-miterlimit="10"/>
<path d="M138.639 85.0035L94.3405 76.1012" stroke="#B09368" stroke-miterlimit="10"/>
<path d="M14.3765 57.0407L40.8789 90.6925" stroke="#B09368" stroke-miterlimit="10"/>
<path d="M14.704 59.1067L40.425 91.9333" stroke="#B09368" stroke-miterlimit="10"/>
<path d="M54.6575 67.1417L14.3765 57.0407" stroke="#B09368" stroke-miterlimit="10"/>
<path d="M78.6415 154.415L84.3483 154.852" stroke="#B09368" stroke-miterlimit="10"/>
<path d="M35.9836 149.69L34.9529 154.415L22.6198 143.101L31.9117 109.383L37.0054 100.068L42.0751 104.934" stroke="#B09368" stroke-linecap="round" stroke-linejoin="round"/>
<path d="M37.0052 100.068L31.6441 98.9774L25.9794 108.777L16.9789 141.941L29.3962 153.271L34.9527 154.415" stroke="#B09368" stroke-linecap="round" stroke-linejoin="round"/>
<path d="M22.6198 143.101L16.9791 141.941" stroke="#B09368" stroke-linecap="round" stroke-linejoin="round"/>
<path d="M88.0477 163.447V171.955C88.0477 176.614 78.2449 182.499 66.1522 182.499C54.0595 182.499 44.2567 176.611 44.2567 171.955V151.47" stroke="#B09368" stroke-linecap="round" stroke-linejoin="round"/>
<path d="M0.300481 212.56L67.4054 251.374L134.513 212.56V191.648L67.4054 230.462L0.300481 191.648V212.56Z" stroke="#B09368" stroke-linecap="round" stroke-linejoin="round"/>
<path d="M88.0477 164.775L134.513 191.648L67.4054 230.461L0.300481 191.648L44.2597 166.224" stroke="#B09368" stroke-linecap="round" stroke-linejoin="round"/>
<path d="M67.4054 251.374V230.461V182.502" stroke="#B09368" stroke-linecap="round" stroke-linejoin="round"/>
<path d="M134.513 191.648L88.0477 171.958" stroke="#B09368" stroke-linecap="round" stroke-linejoin="round"/>
<path d="M0.300372 191.648L44.2596 171.958" stroke="#B09368" stroke-linecap="round" stroke-linejoin="round"/>
<path d="M40.3741 92.1531C12.9011 73.3396 -1.22614 45.5544 7.99666 25.2802C19.314 0.404289 63.2553 -4.66125 105.42 15.6882C147.3 35.8992 168.075 71.8006 153.506 94.7401C144.49 108.937 124.674 117.098 101.324 115.014" stroke="#B09368" stroke-miterlimit="10"/>
<path d="M110.544 16.4531L108.45 9.84264C108.11 8.76749 106.986 8.15011 105.898 8.44224L98.0939 10.5263" stroke="#B09368" stroke-miterlimit="10"/>
<path fill-rule="evenodd" clip-rule="evenodd" d="M59.0751 103.359C57.3501 102.483 55.5921 102.48 55.1534 103.347L58.5462 96.0863C58.9849 95.2159 60.7399 95.2219 62.4679 96.0983C64.1928 96.9747 65.2386 98.3871 64.7999 99.2575L61.4071 106.519C61.8458 105.648 60.803 104.236 59.0751 103.359Z" stroke="#B09368" stroke-miterlimit="10"/>
<path fill-rule="evenodd" clip-rule="evenodd" d="M59.075 103.359C57.35 102.483 55.592 102.48 55.1533 103.347C54.7145 104.218 55.7573 105.63 57.4853 106.506C59.2102 107.383 60.9682 107.386 61.407 106.519C61.8457 105.648 60.803 104.236 59.075 103.359Z" stroke="#B09368" stroke-miterlimit="10"/>
</g>
<defs>
<clipPath id="clip0_1_254">
<rect width="160" height="251" fill="white" transform="matrix(-1 0 0 1 160 0.675293)"/>
</clipPath>
</defs>
</svg>
