<svg width="122" height="98" viewBox="0 0 122 98" fill="none" xmlns="http://www.w3.org/2000/svg">
<path d="M13.877 97.9999V89.9147H20.2121V91.7248H15.687V92.9919H19.2468V94.802H15.687V96.1898H20.2121V97.9999H13.877V97.9999Z" fill="white"/>
<path d="M29.3207 89.8545V97.9397H27.5107V93.0524L24.856 94.6212V97.9397H23.0459V89.8545H24.856V92.3887L27.5107 90.8199V89.8545H29.3207V89.8545Z" fill="white"/>
<path d="M38.9137 91.6646H36.5606V97.9397H34.5695V91.6646H32.1561V89.8545H38.9137V91.6646V91.6646Z" fill="white"/>
<path d="M41.4506 98.0001V89.9149H47.7858V91.725H43.2606V92.9921H46.8204V94.8022H43.2606V96.19H47.7858V98.0001H41.4506V98.0001Z" fill="white"/>
<path d="M57.0731 89.9149V98.0001H55.263V94.6212H53.5736L52.8496 98.0001H50.9189L51.6429 94.6212H50.5569V89.9149H57.0731ZM55.263 92.8111V91.725H52.4273V92.8111H55.263Z" fill="white"/>
<path d="M66.4301 95.4055H61.724V97.9397H59.9139V89.8545H66.3698V95.4055H66.4301ZM64.6201 91.6646H61.724V93.5954H64.5598V91.6646H64.6201Z" fill="white"/>
<path d="M76.0245 89.8545V95.0435H74.9385L75.6625 97.9397H73.7921L73.0681 95.0435H71.077V97.9397H69.267V89.8545H76.0245V89.8545ZM74.2145 93.2334V91.6646H71.077V93.2334H74.2145Z" fill="white"/>
<path d="M78.859 98.0001V89.9149H80.6691V98.0001H78.859Z" fill="white"/>
<path d="M89.9562 98.0001H83.5004V96.19H88.1462V94.8022H83.5004V89.9149H89.9562V91.725H85.3104V93.0525H89.9562V98.0001Z" fill="white"/>
<path d="M92.7947 98.0001V89.9149H99.1299V91.725H94.6047V92.9921H98.1645V94.8022H94.6047V96.19H99.1299V98.0001H92.7947V98.0001Z" fill="white"/>
<path d="M108.42 98.0001H101.964V96.19H106.61V94.8022H101.964V89.9149H108.42V91.725H103.774V93.0525H108.42V98.0001Z" fill="white"/>
<path d="M15.8078 79.295H0V74.8903H11.4033V71.5114H0V59.5043H15.8078V63.9089H4.4648V67.1671H15.8078V79.295V79.295Z" fill="#8C7148"/>
<path d="M35.599 73.0199H24.1956V79.295H19.7911V59.5043H35.599V73.0199V73.0199ZM31.1341 63.9089H24.1956V68.6152H31.1341V63.9089Z" fill="#8C7148"/>
<path d="M39.0378 79.295V59.5043H43.4423V74.83H50.7428V59.5043H55.1473V79.295H39.0378Z" fill="#8C7148"/>
<path d="M74.7513 63.9089H68.9592V79.295H64.1324V63.9089H58.1592V59.5043H74.7513V63.9089Z" fill="#8C7148"/>
<path d="M82.3572 59.5047V61.8578L89.4164 65.7194V59.4443H93.8209V79.235H89.4767V71.0895L82.4175 67.2279V79.235H78.0131V59.4443H82.3572V59.5047Z" fill="#8C7148"/>
<path d="M97.8629 79.3559V59.5652H102.267V79.3559H97.8629Z" fill="#8C7148"/>
<path d="M119.164 69.5209L121.216 79.3559H116.57L114.518 69.5209H110.657V79.3559H106.252V59.5652H110.657V65.1162H117.595V59.5652H122V69.5812H119.164V69.5209Z" fill="#8C7148"/>
<path d="M107.277 25.5951C107.277 25.5951 107.216 25.1124 107.277 24.69C107.337 24.2677 106.915 24.2073 106.915 24.2073L106.975 23.1212L106.07 22.0352L105.708 21.8541C105.647 20.9491 105.104 20.8284 105.104 20.8284C103.837 15.0964 99.2519 9.84698 95.0285 7.97652C94.8475 7.6145 94.3045 7.37315 94.3045 7.37315L90.262 3.02886C90.0207 2.78751 89.7793 2.60649 89.4776 2.54615L87.9089 2.06346C87.6676 2.00312 87.4262 2.00312 87.2452 2.06346L86.6419 2.18412C86.1592 2.30479 85.6765 2.24447 85.1939 2.1238L84.4095 1.94277C84.1681 1.88244 83.9872 1.76176 83.8665 1.58075C83.5045 1.09805 82.9615 1.03771 82.5391 1.03771C82.2978 1.03771 82.0564 0.977377 81.8151 0.796365C81.3324 0.494678 80.8497 0.494681 80.4877 0.555019C80.2464 0.615356 80.005 0.555011 79.824 0.434336C79.3413 0.132649 78.7983 0.13266 78.376 0.011985C78.0743 -0.0483525 77.9536 0.132656 77.833 0.253331C77.7726 0.434344 77.5313 0.494678 77.3503 0.494678C77.2296 0.494678 77.0486 0.434336 76.9279 0.434336C76.6866 0.373999 76.5659 0.675683 76.5056 0.97737C76.5056 1.15838 76.3246 1.27907 76.1436 1.21873C75.7212 1.21873 74.8765 1.15839 74.2129 1.15839C73.7302 1.15839 73.3078 1.27906 73.0665 1.39974C72.7648 1.58075 72.4028 1.64109 72.1011 1.70143L71.7391 1.76177C71.3168 1.82211 70.9547 1.88243 70.5324 1.88243C65.4039 1.88243 30.0475 1.70143 29.6252 1.70143C29.1425 1.64109 28.8408 2.24446 29.4442 2.3048C30.0475 2.36514 66.309 3.51156 70.7738 3.63223C71.0754 3.63223 71.3771 3.69256 71.6788 3.7529L72.6441 3.99424L73.8508 4.23561C74.0922 4.29595 74.3335 4.29593 74.6352 4.29593L78.376 4.35627C78.4966 4.35627 78.6173 4.35627 78.6776 4.35627L79.5827 4.17527C79.824 4.11493 80.0654 4.11493 80.3067 4.23561L81.1514 4.47696C81.2721 4.53729 81.3324 4.5373 81.4531 4.5373L83.4441 4.7183C83.5648 4.7183 83.6251 4.71831 83.7458 4.77864L84.6508 4.95965C84.8318 5.01999 84.9525 5.14066 84.9525 5.32168L84.3492 5.26134C84.1682 5.26134 84.0475 5.32168 83.9268 5.44236C83.8665 5.5027 83.7458 5.56302 83.6855 5.56302L83.0821 5.68371C82.3581 5.01999 81.7548 5.86471 81.7548 5.86471C78.376 6.58876 75.9626 7.6145 74.0922 9.00227C73.1872 8.64024 73.1268 9.66598 73.1268 9.66598C70.2911 11.5968 66.3693 15.2774 64.9212 22.5782C64.8609 22.7592 64.6799 22.9402 64.4989 22.9402C64.3782 22.9402 64.3179 23.0609 64.2576 23.1212C64.1369 23.3022 64.0162 23.4229 63.7749 23.4229C63.4129 23.4833 63.1112 23.4833 62.7492 23.4229C62.6889 23.4229 62.5682 23.4229 62.5078 23.4229L60.8185 23.785C60.5771 23.8453 60.3961 24.0263 60.3961 24.2676L57.0173 25.1727C56.6553 25.233 56.3537 25.4744 56.2933 25.8364C56.2933 25.8968 56.233 25.9571 56.1726 25.9571L54.1213 26.6208C54.0006 26.6811 53.9403 26.6812 53.8196 26.8018L53.6386 26.9225C53.6386 26.9225 1.26766 39.8347 0.664311 40.4381C0.483305 40.6191 0.422974 40.7398 0.422974 40.9208C0.422974 41.5242 0.966001 41.8862 1.50902 41.7655L54.3023 28.4913C54.3626 28.4913 54.4229 28.4913 54.4229 28.4913L56.1726 28.2499C56.414 28.1896 56.6553 28.2499 56.8967 28.3103C57.1983 28.4309 57.6207 28.5516 57.8017 28.5516C58.043 28.5516 62.5682 27.2845 63.7145 26.9225C63.8955 26.8622 64.0765 26.9225 64.1972 26.9828C64.3179 27.0432 64.4386 27.2242 64.4386 27.4052C65.9469 34.5854 68.662 38.266 71.9805 41.3432C71.9805 41.3432 65.7659 44.2394 64.8609 44.7824C63.7749 45.4461 64.3179 46.4115 65.4643 45.8685C66.5503 45.3858 73.0665 42.1879 73.0665 42.1879C78.195 45.5668 82.7805 45.9288 83.8665 45.9891C84.0475 45.9891 84.0475 46.2305 84.0475 46.2305C84.2888 46.9545 85.2542 46.0495 85.2542 46.0495L87.8486 45.9891C87.9089 46.2908 88.4519 46.2305 88.4519 46.2305L87.3056 47.8596L85.9179 47.7993L85.4352 48.5233L85.7369 49.2474H84.8318C84.3492 49.2474 84.1682 50.0318 84.1682 50.0318C84.5302 51.4195 83.8665 50.2731 83.8665 50.2731L81.7548 51.1782L78.195 53.7124L78.376 54.4967C78.376 54.4967 76.8676 56.1258 76.6263 56.3069C70.4721 60.1685 39.0978 82.7347 38.0118 83.5191C36.9257 84.3035 36.5034 86.3549 38.0118 85.3292C47.7257 78.6921 73.0665 60.7115 77.652 57.5136C78.6173 56.7896 78.557 56.8499 77.652 57.5136C78.195 57.1516 79.8843 56.4275 79.8843 56.4275C79.8843 56.4275 80.3067 56.4275 80.9704 56.1259C81.6341 55.8242 83.3235 54.4967 83.3235 54.4967L85.0128 54.6777L86.5816 53.29L86.8229 52.6866C87.8486 52.3849 88.2709 51.2385 88.2709 51.2385C89.4776 50.5748 89.4776 49.5491 89.4776 49.5491L92.072 46.8942C94.0028 46.9545 95.2698 44.8427 95.2698 44.8427L95.5715 44.6014L95.9335 43.1533L96.1748 43.093C96.8989 43.3946 97.5626 42.0069 97.5626 42.0069L100.097 39.8951C100.459 40.1364 101.605 38.628 101.605 38.628C102.088 38.5676 102.389 37.4816 102.389 37.4816C102.389 37.4816 102.329 37.9039 103.898 35.0077C105.466 32.1719 104.984 31.8098 104.863 31.6892C105.044 30.5428 105.466 29.0343 105.587 28.0689L106.915 27.0432V25.9571L107.277 25.5951ZM76.4453 2.42548C76.0833 2.48582 75.7816 2.48581 75.4196 2.48581C75.0576 2.48581 74.7559 2.48581 74.3939 2.48581C74.2129 2.48581 74.0318 2.48581 73.8508 2.48581H73.6095H73.4888C73.4285 2.48581 73.3682 2.48582 73.3078 2.42548L73.4888 1.76177C73.4888 1.76177 73.4888 1.76177 73.5492 1.76177H73.6698H73.9112C74.0922 1.76177 74.2732 1.76177 74.3939 1.76177C74.7559 1.76177 75.0576 1.76177 75.4196 1.76177C76.0229 1.76177 76.6866 1.8221 77.2899 1.94277C77.4106 1.94277 77.4709 2.06346 77.4709 2.1238C77.4709 2.24447 77.4106 2.30481 77.2899 2.36514C77.0486 2.30481 76.7469 2.36515 76.4453 2.42548ZM79.2207 2.00311H79.1604C79.1 2.00311 79.1 2.00311 79.0397 2.00311C78.9793 2.00311 78.919 1.94277 78.7983 1.94277C78.6776 1.88244 78.4966 1.82211 78.376 1.76177C78.2553 1.70143 78.0743 1.64108 77.9536 1.58075C77.833 1.52041 77.7123 1.39973 77.5916 1.27906L77.7123 0.917047C77.8933 0.917047 78.014 0.917047 78.195 0.917047C78.376 0.917047 78.4967 0.97737 78.6173 0.97737C78.738 1.03771 78.919 1.03771 79.0397 1.09805C79.1 1.09805 79.1603 1.1584 79.281 1.21873C79.3413 1.21873 79.3413 1.27906 79.4017 1.27906L79.462 1.3394L79.5223 1.39974L79.2207 2.00311ZM81.2721 2.06346C81.2117 2.24447 81.0911 2.42548 81.0307 2.60649C80.9704 2.72716 80.91 2.90818 80.91 3.02886C80.8497 3.14953 80.8497 3.27019 80.8497 3.39087C80.6687 3.57188 80.4274 3.51156 80.3067 3.27021C80.2464 3.20987 80.2464 3.0892 80.2464 3.02886C80.186 2.78751 80.2464 2.60649 80.2464 2.36514C80.3067 2.18413 80.367 1.94278 80.4877 1.76177C80.4877 1.70143 80.548 1.64108 80.6084 1.58075C80.729 1.3394 81.0911 1.3394 81.2721 1.58075C81.3324 1.70142 81.3324 1.88244 81.2721 2.06346ZM59.9737 25.9571C59.5514 26.0174 59.1291 26.0778 58.7067 26.1381C58.405 26.1381 58.1637 26.1985 57.862 26.1985L57.4397 26.2588C57.3794 26.2588 57.319 26.2588 57.2587 26.2588H57.0777L56.8363 25.9571C56.8967 25.8968 56.8967 25.8968 56.957 25.8364C57.0173 25.8364 57.0173 25.7761 57.0777 25.7761C57.138 25.7157 57.1983 25.7158 57.2587 25.6554C57.3793 25.5951 57.5603 25.5347 57.681 25.4744C57.9827 25.3537 58.2241 25.2934 58.5257 25.233C58.8274 25.1727 59.0687 25.1124 59.3704 25.1124C59.5514 25.1124 59.6721 25.052 59.8531 25.052C60.0341 25.052 60.2151 25.1727 60.2754 25.4141C60.3358 25.7157 60.2151 25.8968 59.9737 25.9571ZM83.8061 52.2642C83.7458 52.3246 83.6251 52.3849 83.5648 52.4453C83.5648 52.4453 82.9614 52.8073 82.7201 52.9883C82.2978 53.29 81.8151 53.5313 81.3927 53.7727C81.091 53.9537 80.8497 54.0744 80.5481 54.2554C80.2464 54.3761 79.9447 54.5571 79.643 54.6777L79.462 54.3761C79.7034 54.1347 79.9447 53.9537 80.186 53.7727C80.4274 53.5917 80.7291 53.4107 80.9704 53.1693C82.1771 52.2642 83.0821 51.9022 83.2631 51.8419C83.3838 51.8419 83.4441 51.7815 83.5648 51.7815C83.6855 51.7212 83.8665 51.7816 83.9872 51.9022C84.1682 52.0832 84.0475 52.1436 83.8061 52.2642ZM88.5726 50.0921C88.5123 50.2128 88.3916 50.2731 88.2106 50.2128C88.0296 50.1524 87.2452 49.4887 87.0642 48.8854C87.0039 48.7647 87.1246 48.5837 87.2452 48.5837C87.3056 48.5837 87.3659 48.5837 87.4262 48.644C87.4866 48.7043 87.5469 48.7647 87.6073 48.825C87.6676 48.8854 87.7279 49.006 87.8486 49.0664C87.9089 49.1267 88.0296 49.187 88.0899 49.3077C88.1503 49.368 88.3313 49.5491 88.5123 49.7301C88.633 49.7904 88.633 49.9714 88.5726 50.0921ZM66.3089 24.0263C65.5246 24.328 64.6799 24.5693 63.8352 24.7504C63.0509 24.9314 62.2665 25.1124 61.4821 25.233C61.3011 25.2934 61.1201 25.1124 61.0598 24.9314C60.9995 24.7503 61.1201 24.509 61.3011 24.509C62.0855 24.2676 62.8698 24.147 63.5939 23.966C64.4385 23.7849 65.2832 23.6643 66.1279 23.6039C66.2486 23.6039 66.309 23.6643 66.3693 23.785C66.49 23.8453 66.4296 23.966 66.3089 24.0263ZM67.3346 23.1212C67.3346 22.9402 67.4553 22.8195 67.6363 22.8195C67.9983 22.6989 68.3 22.3972 68.3 22.0352C68.3604 20.7077 68.5413 19.3803 68.843 18.1132C69.205 16.6048 69.6877 15.0964 70.4118 13.7689C70.7738 13.1052 71.1961 12.4415 71.6185 11.8381C72.0408 11.2951 72.5838 10.8124 73.1268 10.4504C73.1872 10.39 73.3078 10.4504 73.3682 10.5107C73.4285 10.571 73.3682 10.6917 73.3078 10.6917C72.7648 11.0537 72.2821 11.5364 71.8598 12.0795C71.4374 12.6829 71.0754 13.2862 70.7134 13.9499C70.0497 15.2774 69.6274 16.7255 69.2654 18.2339C69.024 19.2596 68.9034 20.3457 68.843 21.3715C68.7827 22.2765 69.3257 22.3972 69.8687 22.3369C69.9291 22.3369 70.0497 22.3369 70.1101 22.2765C70.2911 22.2765 70.4721 22.2162 70.7134 22.1558C71.1358 22.0955 71.4374 21.7335 71.4978 21.3111C71.5581 20.3457 71.6185 18.6563 71.7995 17.6909C72.1011 15.8807 72.5838 14.0706 73.3682 12.4415C73.7302 11.5968 74.2128 10.8124 74.7559 10.0883C75.2385 9.42462 75.8419 8.76091 76.5659 8.33855C76.6262 8.27821 76.7469 8.33855 76.8073 8.39889C76.8676 8.45923 76.8073 8.5799 76.7469 8.64024C76.0833 9.0626 75.5402 9.66597 75.0575 10.3297C74.5749 11.0537 74.1525 11.8381 73.7905 12.6225C73.0665 14.2516 72.6441 16.0014 72.4028 17.7512C72.2218 19.139 72.1615 19.8027 72.1615 21.1904C72.1615 21.9748 72.7045 21.8541 73.0062 21.8541C73.1268 21.8541 73.1871 21.9145 73.2475 22.0352C73.3078 22.1558 73.1872 22.2162 73.1268 22.2765C72.2218 22.5782 71.3168 22.8195 70.4118 23.0609C69.5671 23.2419 68.662 23.4229 67.8173 23.5436C67.5156 23.6039 67.2743 23.3626 67.3346 23.1212ZM85.4955 23.6039L85.6162 23.9056C85.6162 23.966 85.6162 24.0263 85.5559 24.0866L85.2542 24.2073C84.4095 24.4487 83.5045 24.69 82.6598 24.9917C81.8151 25.2331 80.9101 25.4744 80.0654 25.7157C79.2207 25.9571 78.3156 26.1984 77.4709 26.4398L76.1436 26.8018L75.4799 26.9828C75.2385 27.0432 75.0575 27.1638 74.7559 26.9828L74.6955 26.8018C74.8162 26.5001 75.0575 26.5001 75.2989 26.4398L75.9626 26.2588L77.2296 25.8364C78.0743 25.5347 78.919 25.2934 79.824 25.052C80.6687 24.8107 81.5134 24.509 82.4184 24.2676C83.1424 24.0263 83.8665 23.8453 84.5905 23.6039L84.3492 23.0609L84.2888 22.9402L84.3492 22.8195L84.7112 21.3111L83.8061 20.2854L83.6855 20.1647V20.044V19.32C82.9011 19.3803 82.1771 19.3803 81.3927 19.4406C80.4877 19.501 79.5827 19.501 78.6776 19.5613L75.9626 19.682L74.6352 19.7423H73.9715C73.7302 19.7423 73.5492 19.8027 73.3078 19.682V19.6217C73.5492 19.4407 73.7302 19.501 73.9715 19.4406L74.6352 19.3803L75.9626 19.2596L78.6776 19.0183C79.5827 18.958 80.4877 18.8373 81.3927 18.7769C82.2977 18.7166 83.2028 18.5959 84.1078 18.5356H84.3492C84.4095 18.5356 84.4698 18.5959 84.4698 18.6563V18.958V19.9234L85.4352 20.9491L85.5559 21.1301L85.4955 21.3111L85.1335 22.8799L85.4955 23.6039ZM74.8765 21.8541C74.8765 21.7335 74.9369 21.6731 75.0575 21.6128C76.3849 21.3111 77.6519 21.1301 78.9793 20.9491C80.2464 20.7681 81.5134 20.5871 82.7805 20.5267C82.9615 20.5267 83.1424 20.6474 83.2028 20.8284C83.2028 21.0094 83.0821 21.1904 82.9011 21.2508C81.6341 21.4318 80.367 21.6128 79.1 21.7335C77.7726 21.8542 76.4453 21.9748 75.1179 22.0352C74.9972 22.0352 74.8765 21.9145 74.8765 21.8541ZM80.0654 43.3946C80.005 43.3946 79.9447 43.3343 79.824 43.274C76.9279 41.7052 74.8162 39.8347 73.0062 37.1195C72.0408 35.6714 71.2564 34.2233 70.5928 32.6546C69.9291 31.0858 69.3861 29.517 69.0844 27.8276C69.024 27.5259 68.9637 27.2242 68.9034 26.8622C68.843 26.6812 69.024 26.5001 69.2051 26.4398C69.4464 26.3795 69.6877 26.5001 69.6877 26.7415C69.7481 27.0432 69.8084 27.3449 69.8687 27.6465C70.2307 29.2153 70.7134 30.7841 71.3771 32.2925C72.0408 33.801 72.8252 35.2491 73.7302 36.6368C74.1525 37.3609 74.6955 38.0246 75.1782 38.628C75.7212 39.2917 76.2642 39.8951 76.8676 40.4984C78.014 41.7052 80.186 42.9723 80.186 42.9723C80.4274 43.2136 80.2464 43.455 80.0654 43.3946ZM87.1246 43.7567C87.0642 43.7567 87.0643 43.817 87.0039 43.817C86.0989 43.817 85.2542 43.5756 84.4095 43.274C83.5648 42.9723 82.7805 42.5499 82.0564 42.0672C80.5481 41.1018 79.3413 40.0157 78.0743 38.628C76.8676 37.2402 75.7816 35.7318 74.9369 34.1027C74.5145 33.3183 74.0922 32.4736 73.7302 31.6288C73.3682 30.7841 73.0665 29.9394 72.7648 29.0343C72.4631 28.0689 72.2218 27.0432 72.0408 26.0778C71.9804 25.8968 72.1011 25.7158 72.2821 25.6554C72.4631 25.5951 72.7045 25.7158 72.7648 25.9571C72.9458 26.9225 73.1872 27.8879 73.4888 28.8533C74.5749 32.2322 76.3246 35.4301 78.6173 38.0849C79.7637 39.4124 81.1514 40.6191 82.6598 41.5845C83.3838 42.0672 84.1681 42.4896 85.0128 42.8516C85.6765 43.093 86.3402 43.3343 87.0039 43.3946C87.2453 43.3946 87.3056 43.636 87.1246 43.7567ZM86.9436 12.1398C86.5816 12.5622 86.1592 12.9242 85.6765 13.1656C85.1939 13.4069 84.7112 13.6483 84.2285 13.7689C83.7458 13.8896 83.2028 14.0103 82.6598 14.0103C82.1168 14.0706 81.6341 14.131 81.091 14.0706C80.548 14.0706 80.0654 13.9499 79.5223 13.8293C78.9793 13.7086 78.4966 13.4672 78.0743 13.1052C77.5916 12.7432 77.2296 12.2001 77.1693 11.5968C77.1089 10.9331 77.5313 10.39 77.8933 9.96767C78.2553 9.54531 78.6777 9.24362 79.1604 9.06261C79.643 8.82126 80.005 8.64023 80.5481 8.51956C81.0307 8.39888 81.5737 8.27821 82.0564 8.21787C82.5391 8.15753 83.0821 8.15753 83.5648 8.21787C84.1078 8.21787 84.5301 8.33856 85.0128 8.45923C85.4955 8.57991 85.9782 8.76091 86.4609 9.12293C86.8832 9.42462 87.4262 9.90733 87.5469 10.5107C87.5469 11.1141 87.3056 11.7174 86.9436 12.1398ZM87.7883 5.62336C87.3056 5.50269 86.8229 5.38202 86.2799 5.38202C86.0386 5.38202 85.9179 5.201 85.9179 4.95965C85.9179 4.77864 86.0989 4.65796 86.2799 4.65796C86.8832 4.65796 87.4263 4.77863 87.9693 4.89931C88.633 5.01998 89.2966 5.20101 89.9 5.44236C90.262 5.56303 90.6843 5.74404 91.0463 5.92505C90.9257 5.80438 90.8653 5.6837 90.7447 5.62336C90.0206 4.83898 89.5983 4.29594 88.8743 3.51155L88.6329 3.20986C88.2106 2.84784 88.995 3.08919 89.176 3.20986C89.9 3.87358 90.5637 4.53728 91.2274 5.20099C91.8911 5.86471 92.6151 6.52843 93.2788 7.25248C93.3994 7.37316 93.3994 7.6145 93.2788 7.73518L93.2184 7.79552C93.0978 7.91619 92.8564 7.97653 92.7358 7.85586C92.3134 7.55417 91.8911 7.25247 91.4084 7.07146C90.8654 6.76977 90.262 6.52843 89.6586 6.34742C89.0553 5.92506 88.452 5.74404 87.7883 5.62336ZM89.9 43.093C89.719 43.2136 89.4777 43.1533 89.4173 42.9723C89.2967 42.7913 89.357 42.6103 89.538 42.4896C90.0206 42.1879 90.5034 41.8259 90.9257 41.4035C91.4687 40.9208 91.9514 40.4381 92.4944 39.8951C92.9771 39.352 93.4598 38.809 93.9425 38.2659C94.3648 37.7229 94.7871 37.2402 95.2095 36.6972C95.2698 36.6368 95.3905 36.5765 95.4508 36.6368C95.5112 36.6972 95.5715 36.8178 95.5112 36.8782C95.2095 37.4816 94.8475 38.0849 94.4855 38.628C94.0631 39.2314 93.6408 39.8347 93.0978 40.3778C92.6151 40.9208 92.072 41.4638 91.4687 41.9465C90.986 42.4292 90.443 42.7913 89.9 43.093ZM97.5022 36.8179C97.0799 37.9643 96.5972 39.171 96.1748 40.3174C95.9335 40.9208 95.7525 41.4638 95.5112 42.0672L94.8475 43.6963C94.7872 43.9377 94.5458 43.998 94.3648 43.8773C94.3044 43.817 94.1838 43.7567 94.0631 43.636C93.9424 43.5756 93.8218 43.5153 93.7011 43.455C93.4598 43.3946 93.2184 43.3343 93.0374 43.3343C92.7961 43.3343 92.6151 43.3946 92.3737 43.455C92.2531 43.5153 92.1324 43.5757 92.0117 43.6963C91.8911 43.817 91.71 43.7567 91.6497 43.636C91.529 43.455 91.5894 43.274 91.7101 43.1533C91.8307 43.0326 92.0117 42.9119 92.1324 42.8516C92.4341 42.7309 92.7358 42.6706 93.0374 42.6706C93.3391 42.6706 93.6408 42.7309 93.8821 42.8516C94.0028 42.9119 94.1235 42.9723 94.3045 43.0326C94.3045 43.0326 94.3648 43.0326 94.3648 43.093L94.9078 41.7655C95.1491 41.1621 95.3905 40.6191 95.5715 40.0157C95.9938 38.9297 96.4162 37.7832 96.8989 36.6972C96.8989 36.6972 96.8989 36.6368 96.8385 36.6368C96.7782 36.5765 96.6575 36.2145 96.5972 36.2145C96.5972 36.1541 96.5368 36.0938 96.4765 36.0335V35.9731L96.4162 35.7921C96.5369 35.7318 96.7179 35.6714 96.8989 35.7318C97.0195 35.7921 97.1402 35.9128 97.2005 35.9731C97.2609 36.0938 97.3212 36.1541 97.3815 36.2748C97.4419 36.3955 97.5022 36.4558 97.5022 36.5765L97.5626 36.6972L97.5022 36.8179ZM104.079 32.5942C103.596 33.62 103.053 34.5854 102.51 35.5508C101.967 36.5162 101.364 37.4816 100.76 38.3866C100.7 38.447 100.579 38.5073 100.519 38.447C100.459 38.3866 100.398 38.2659 100.459 38.2056C100.881 37.1799 101.364 36.1541 101.846 35.1887C102.329 34.2233 102.872 33.2579 103.475 32.2925C103.536 32.1719 103.656 32.1719 103.777 32.2322L104.079 32.4132C104.079 32.3529 104.139 32.4736 104.079 32.5942ZM105.768 26.8622C105.647 26.8622 105.527 26.7415 105.466 26.5001C105.466 26.2588 105.406 26.0174 105.406 25.7157C105.406 25.3537 105.346 24.9917 105.346 24.5693C105.285 23.8453 105.225 23.0609 105.285 22.2765L105.527 22.2162C105.587 22.5782 105.708 22.9402 105.768 23.3022C105.828 23.6643 105.889 24.0263 105.949 24.4487C106.009 25.1124 106.07 25.7157 106.07 26.3795C106.009 26.6811 105.949 26.8018 105.768 26.8622Z" fill="white"/>
</svg>
